<?xml version="1.0" standalone="no"?>
<!DOCTYPE svg PUBLIC "-//W3C//DTD SVG 20010904//EN"
 "http://www.w3.org/TR/2001/REC-SVG-20010904/DTD/svg10.dtd">
<svg version="1.0" xmlns="http://www.w3.org/2000/svg"
 width="180.000000pt" height="180.000000pt" viewBox="0 0 180.000000 180.000000"
 preserveAspectRatio="xMidYMid meet">
<metadata>
Created by potrace 1.10, written by Peter Selinger 2001-2011
</metadata>
<g transform="translate(0.000000,180.000000) scale(0.100000,-0.100000)"
fill="#000000" stroke="none">
<path d="M260 940 l0 -400 110 0 110 0 0 -50 0 -50 415 0 415 0 0 50 0 50 110
0 110 0 0 400 0 400 -635 0 -635 0 0 -400z m1238 3 l2 -373 -86 0 c-107 0
-124 -8 -124 -60 l0 -40 -192 -2 c-106 0 -211 -1 -233 0 -22 0 -113 1 -202 1
l-163 1 0 38 c0 56 -11 62 -117 62 l-93 0 0 375 0 375 603 -2 602 -3 3 -372z"/>
<path d="M350 1244 c-10 -11 -13 -82 -13 -301 0 -267 1 -287 18 -299 15 -11
73 -14 262 -14 134 0 243 -4 243 -9 0 -5 -7 -14 -15 -21 -39 -32 10 -129 58
-115 52 15 73 78 41 123 l-15 22 249 0 c228 0 250 2 265 18 15 16 17 52 17
298 -1 216 -4 283 -14 297 -12 16 -50 17 -548 17 -472 0 -537 -2 -548 -16z
m1083 -299 l2 -285 -537 0 -538 0 0 288 0 287 535 -2 536 -2 2 -286z m-512
-345 c26 -15 26 -66 -1 -80 -48 -26 -91 30 -55 70 21 23 29 24 56 10z"/>
<path d="M1383 935 c0 -33 2 -45 4 -27 2 18 2 45 0 60 -2 15 -4 0 -4 -33z"/>
</g>
</svg>
